<mxfile host="Electron" modified="2023-05-09T15:52:29.077Z" agent="Mozilla/5.0 (Macintosh; Intel Mac OS X 10_15_7) AppleWebKit/537.36 (KHTML, like Gecko) draw.io/21.2.8 Chrome/112.0.5615.165 Electron/24.2.0 Safari/537.36" etag="a1Cfvh5jjJzB_A6IUWjj" version="21.2.8" type="device" pages="3">
  <diagram name="Page-1" id="DhjK6ub2rNOMFvLf1U9X">
    <mxGraphModel dx="1114" dy="999" grid="0" gridSize="10" guides="1" tooltips="1" connect="1" arrows="1" fold="1" page="1" pageScale="1" pageWidth="850" pageHeight="1100" math="0" shadow="0">
      <root>
        <mxCell id="0" />
        <mxCell id="1" parent="0" />
        <mxCell id="vlAr-wh--yHKUi2ePpUn-33" value="SubclassOf" style="edgeStyle=orthogonalEdgeStyle;rounded=0;orthogonalLoop=1;jettySize=auto;html=1;entryX=0.5;entryY=1;entryDx=0;entryDy=0;" parent="1" source="vlAr-wh--yHKUi2ePpUn-1" target="vlAr-wh--yHKUi2ePpUn-32" edge="1">
          <mxGeometry relative="1" as="geometry" />
        </mxCell>
        <mxCell id="p9-EDQrn5yA7QN9thZiw-11" style="edgeStyle=orthogonalEdgeStyle;rounded=0;orthogonalLoop=1;jettySize=auto;html=1;entryX=0.558;entryY=1.05;entryDx=0;entryDy=0;entryPerimeter=0;" parent="1" source="vlAr-wh--yHKUi2ePpUn-1" target="vlAr-wh--yHKUi2ePpUn-8" edge="1">
          <mxGeometry relative="1" as="geometry" />
        </mxCell>
        <mxCell id="p9-EDQrn5yA7QN9thZiw-13" value="SubClassOff" style="edgeLabel;html=1;align=center;verticalAlign=middle;resizable=0;points=[];" parent="p9-EDQrn5yA7QN9thZiw-11" vertex="1" connectable="0">
          <mxGeometry x="0.0395" y="-3" relative="1" as="geometry">
            <mxPoint as="offset" />
          </mxGeometry>
        </mxCell>
        <mxCell id="p9-EDQrn5yA7QN9thZiw-12" value="SubClassOf" style="edgeStyle=orthogonalEdgeStyle;rounded=0;orthogonalLoop=1;jettySize=auto;html=1;" parent="1" source="vlAr-wh--yHKUi2ePpUn-1" target="p9-EDQrn5yA7QN9thZiw-9" edge="1">
          <mxGeometry relative="1" as="geometry" />
        </mxCell>
        <mxCell id="vlAr-wh--yHKUi2ePpUn-1" value="Hospital" style="ellipse;whiteSpace=wrap;html=1;" parent="1" vertex="1">
          <mxGeometry x="205" y="300" width="120" height="80" as="geometry" />
        </mxCell>
        <mxCell id="p9-EDQrn5yA7QN9thZiw-26" value="" style="edgeStyle=orthogonalEdgeStyle;rounded=0;orthogonalLoop=1;jettySize=auto;html=1;" parent="1" source="vlAr-wh--yHKUi2ePpUn-3" target="vlAr-wh--yHKUi2ePpUn-1" edge="1">
          <mxGeometry relative="1" as="geometry" />
        </mxCell>
        <mxCell id="p9-EDQrn5yA7QN9thZiw-27" value="operate" style="edgeLabel;html=1;align=center;verticalAlign=middle;resizable=0;points=[];" parent="p9-EDQrn5yA7QN9thZiw-26" vertex="1" connectable="0">
          <mxGeometry x="-0.0161" y="-2" relative="1" as="geometry">
            <mxPoint as="offset" />
          </mxGeometry>
        </mxCell>
        <mxCell id="p9-EDQrn5yA7QN9thZiw-30" value="has_budget" style="edgeStyle=orthogonalEdgeStyle;rounded=0;orthogonalLoop=1;jettySize=auto;html=1;" parent="1" source="vlAr-wh--yHKUi2ePpUn-3" target="p9-EDQrn5yA7QN9thZiw-21" edge="1">
          <mxGeometry relative="1" as="geometry" />
        </mxCell>
        <mxCell id="vlAr-wh--yHKUi2ePpUn-3" value="Organization" style="ellipse;whiteSpace=wrap;html=1;" parent="1" vertex="1">
          <mxGeometry x="425" y="300" width="120" height="80" as="geometry" />
        </mxCell>
        <mxCell id="vlAr-wh--yHKUi2ePpUn-4" value="Org_Name" style="rounded=0;whiteSpace=wrap;html=1;" parent="1" vertex="1">
          <mxGeometry x="508" y="276" width="110" height="30" as="geometry" />
        </mxCell>
        <mxCell id="vlAr-wh--yHKUi2ePpUn-8" value="Human_Resources" style="ellipse;whiteSpace=wrap;html=1;" parent="1" vertex="1">
          <mxGeometry x="112" y="49" width="120" height="80" as="geometry" />
        </mxCell>
        <mxCell id="vlAr-wh--yHKUi2ePpUn-10" value="State/Province" style="ellipse;whiteSpace=wrap;html=1;" parent="1" vertex="1">
          <mxGeometry x="648" y="300" width="120" height="80" as="geometry" />
        </mxCell>
        <mxCell id="vlAr-wh--yHKUi2ePpUn-15" value="Internist&lt;br&gt;Pediatrician&lt;br&gt;etc" style="rounded=0;whiteSpace=wrap;html=1;" parent="1" vertex="1">
          <mxGeometry x="225" y="102" width="149" height="40" as="geometry" />
        </mxCell>
        <mxCell id="vlAr-wh--yHKUi2ePpUn-17" value="NumberOf" style="rounded=0;whiteSpace=wrap;html=1;" parent="1" vertex="1">
          <mxGeometry x="538" y="473" width="110" height="30" as="geometry" />
        </mxCell>
        <mxCell id="p9-EDQrn5yA7QN9thZiw-36" value="" style="edgeStyle=none;rounded=0;orthogonalLoop=1;jettySize=auto;html=1;" parent="1" source="vlAr-wh--yHKUi2ePpUn-18" target="vlAr-wh--yHKUi2ePpUn-20" edge="1">
          <mxGeometry relative="1" as="geometry" />
        </mxCell>
        <mxCell id="p9-EDQrn5yA7QN9thZiw-37" value="committed to" style="edgeLabel;html=1;align=center;verticalAlign=middle;resizable=0;points=[];" parent="p9-EDQrn5yA7QN9thZiw-36" vertex="1" connectable="0">
          <mxGeometry x="0.1235" y="-2" relative="1" as="geometry">
            <mxPoint x="8" as="offset" />
          </mxGeometry>
        </mxCell>
        <mxCell id="p9-EDQrn5yA7QN9thZiw-42" value="" style="edgeStyle=none;rounded=0;orthogonalLoop=1;jettySize=auto;html=1;" parent="1" source="vlAr-wh--yHKUi2ePpUn-18" target="p9-EDQrn5yA7QN9thZiw-41" edge="1">
          <mxGeometry relative="1" as="geometry" />
        </mxCell>
        <mxCell id="p9-EDQrn5yA7QN9thZiw-43" value="has_budget" style="edgeLabel;html=1;align=center;verticalAlign=middle;resizable=0;points=[];" parent="p9-EDQrn5yA7QN9thZiw-42" vertex="1" connectable="0">
          <mxGeometry x="-0.0649" y="1" relative="1" as="geometry">
            <mxPoint as="offset" />
          </mxGeometry>
        </mxCell>
        <mxCell id="vlAr-wh--yHKUi2ePpUn-18" value="Aceh Health Admin" style="ellipse;whiteSpace=wrap;html=1;" parent="1" vertex="1">
          <mxGeometry x="405.5" y="1379" width="120" height="80" as="geometry" />
        </mxCell>
        <mxCell id="p9-EDQrn5yA7QN9thZiw-31" style="edgeStyle=orthogonalEdgeStyle;rounded=0;orthogonalLoop=1;jettySize=auto;html=1;entryX=1;entryY=0.5;entryDx=0;entryDy=0;" parent="1" source="vlAr-wh--yHKUi2ePpUn-19" target="vlAr-wh--yHKUi2ePpUn-18" edge="1">
          <mxGeometry relative="1" as="geometry" />
        </mxCell>
        <mxCell id="vlAr-wh--yHKUi2ePpUn-19" value="Aceh Province" style="ellipse;whiteSpace=wrap;html=1;" parent="1" vertex="1">
          <mxGeometry x="632" y="1379" width="120" height="80" as="geometry" />
        </mxCell>
        <mxCell id="p9-EDQrn5yA7QN9thZiw-33" value="" style="rounded=0;orthogonalLoop=1;jettySize=auto;html=1;" parent="1" source="vlAr-wh--yHKUi2ePpUn-20" target="p9-EDQrn5yA7QN9thZiw-1" edge="1">
          <mxGeometry relative="1" as="geometry" />
        </mxCell>
        <mxCell id="p9-EDQrn5yA7QN9thZiw-34" value="Own_resource" style="edgeLabel;html=1;align=center;verticalAlign=middle;resizable=0;points=[];" parent="p9-EDQrn5yA7QN9thZiw-33" vertex="1" connectable="0">
          <mxGeometry x="-0.1935" relative="1" as="geometry">
            <mxPoint as="offset" />
          </mxGeometry>
        </mxCell>
        <mxCell id="p9-EDQrn5yA7QN9thZiw-35" style="rounded=0;orthogonalLoop=1;jettySize=auto;html=1;entryX=0.203;entryY=0.884;entryDx=0;entryDy=0;entryPerimeter=0;" parent="1" source="vlAr-wh--yHKUi2ePpUn-20" target="vlAr-wh--yHKUi2ePpUn-52" edge="1">
          <mxGeometry relative="1" as="geometry" />
        </mxCell>
        <mxCell id="vlAr-wh--yHKUi2ePpUn-20" value="Dr.Zainal Abidin Hospital Aceh" style="ellipse;whiteSpace=wrap;html=1;" parent="1" vertex="1">
          <mxGeometry x="122" y="1379" width="120" height="80" as="geometry" />
        </mxCell>
        <mxCell id="vlAr-wh--yHKUi2ePpUn-32" value="PublicHospital" style="ellipse;whiteSpace=wrap;html=1;" parent="1" vertex="1">
          <mxGeometry x="26" y="201" width="120" height="80" as="geometry" />
        </mxCell>
        <mxCell id="vlAr-wh--yHKUi2ePpUn-52" value="NumberOfBedType" style="ellipse;whiteSpace=wrap;html=1;" parent="1" vertex="1">
          <mxGeometry x="242" y="1206" width="120" height="80" as="geometry" />
        </mxCell>
        <mxCell id="vlAr-wh--yHKUi2ePpUn-58" value="$1Million" style="rounded=0;whiteSpace=wrap;html=1;" parent="1" vertex="1">
          <mxGeometry x="514.5" y="1561" width="110" height="30" as="geometry" />
        </mxCell>
        <mxCell id="vlAr-wh--yHKUi2ePpUn-59" value="Latitude/longitude" style="rounded=0;whiteSpace=wrap;html=1;" parent="1" vertex="1">
          <mxGeometry x="34" y="1360" width="110" height="30" as="geometry" />
        </mxCell>
        <mxCell id="vlAr-wh--yHKUi2ePpUn-60" value="NameBedType" style="rounded=0;whiteSpace=wrap;html=1;" parent="1" vertex="1">
          <mxGeometry x="333" y="1278" width="84" height="20" as="geometry" />
        </mxCell>
        <mxCell id="R91mBHwkHBW0tk7z-6wp-1" value="Instances" style="text;html=1;align=center;verticalAlign=middle;resizable=0;points=[];autosize=1;strokeColor=none;fillColor=none;" parent="1" vertex="1">
          <mxGeometry x="26" y="1141" width="70" height="30" as="geometry" />
        </mxCell>
        <mxCell id="R91mBHwkHBW0tk7z-6wp-8" value="" style="edgeStyle=none;orthogonalLoop=1;jettySize=auto;html=1;rounded=0;exitX=0;exitY=0.5;exitDx=0;exitDy=0;entryX=1;entryY=0.5;entryDx=0;entryDy=0;" parent="1" source="vlAr-wh--yHKUi2ePpUn-10" target="vlAr-wh--yHKUi2ePpUn-3" edge="1">
          <mxGeometry width="100" relative="1" as="geometry">
            <mxPoint x="642" y="334" as="sourcePoint" />
            <mxPoint x="553" y="334" as="targetPoint" />
            <Array as="points" />
          </mxGeometry>
        </mxCell>
        <mxCell id="p9-EDQrn5yA7QN9thZiw-28" value="commited to" style="edgeLabel;html=1;align=center;verticalAlign=middle;resizable=0;points=[];" parent="R91mBHwkHBW0tk7z-6wp-8" vertex="1" connectable="0">
          <mxGeometry x="-0.2246" y="-2" relative="1" as="geometry">
            <mxPoint as="offset" />
          </mxGeometry>
        </mxCell>
        <mxCell id="p9-EDQrn5yA7QN9thZiw-1" value="Human_resource" style="ellipse;whiteSpace=wrap;html=1;" parent="1" vertex="1">
          <mxGeometry x="161" y="1536" width="120" height="80" as="geometry" />
        </mxCell>
        <mxCell id="p9-EDQrn5yA7QN9thZiw-8" value="Internist&lt;br&gt;Pediatrician&lt;br&gt;cardiologist&lt;br&gt;ets.." style="rounded=0;whiteSpace=wrap;html=1;" parent="1" vertex="1">
          <mxGeometry x="68" y="1597" width="108" height="59" as="geometry" />
        </mxCell>
        <mxCell id="p9-EDQrn5yA7QN9thZiw-9" value="Material_Resources" style="ellipse;whiteSpace=wrap;html=1;" parent="1" vertex="1">
          <mxGeometry x="105" y="439" width="120" height="80" as="geometry" />
        </mxCell>
        <mxCell id="p9-EDQrn5yA7QN9thZiw-10" value="Bed_type" style="rounded=0;whiteSpace=wrap;html=1;" parent="1" vertex="1">
          <mxGeometry x="209.5" y="503" width="111" height="20" as="geometry" />
        </mxCell>
        <mxCell id="p9-EDQrn5yA7QN9thZiw-21" value="Budget" style="ellipse;whiteSpace=wrap;html=1;" parent="1" vertex="1">
          <mxGeometry x="425" y="428" width="120" height="66" as="geometry" />
        </mxCell>
        <mxCell id="p9-EDQrn5yA7QN9thZiw-29" value="Lattitude/longitude" style="rounded=0;whiteSpace=wrap;html=1;" parent="1" vertex="1">
          <mxGeometry x="729" y="369" width="110" height="30" as="geometry" />
        </mxCell>
        <mxCell id="p9-EDQrn5yA7QN9thZiw-32" value="Address" style="rounded=0;whiteSpace=wrap;html=1;" parent="1" vertex="1">
          <mxGeometry x="26" y="1438" width="110" height="30" as="geometry" />
        </mxCell>
        <mxCell id="p9-EDQrn5yA7QN9thZiw-38" style="edgeStyle=none;rounded=0;orthogonalLoop=1;jettySize=auto;html=1;exitX=0.25;exitY=1;exitDx=0;exitDy=0;" parent="1" source="vlAr-wh--yHKUi2ePpUn-58" target="vlAr-wh--yHKUi2ePpUn-58" edge="1">
          <mxGeometry relative="1" as="geometry" />
        </mxCell>
        <mxCell id="p9-EDQrn5yA7QN9thZiw-41" value="Direct_budget" style="ellipse;whiteSpace=wrap;html=1;" parent="1" vertex="1">
          <mxGeometry x="397" y="1515" width="137" height="62" as="geometry" />
        </mxCell>
        <mxCell id="p9-EDQrn5yA7QN9thZiw-44" value="Province_id" style="rounded=0;whiteSpace=wrap;html=1;" parent="1" vertex="1">
          <mxGeometry x="718" y="1453" width="110" height="30" as="geometry" />
        </mxCell>
        <mxCell id="p9-EDQrn5yA7QN9thZiw-45" value="Public_Health_div" style="rounded=0;whiteSpace=wrap;html=1;" parent="1" vertex="1">
          <mxGeometry x="309" y="1438" width="110" height="30" as="geometry" />
        </mxCell>
        <mxCell id="p9-EDQrn5yA7QN9thZiw-46" value="Hosp_Name" style="rounded=0;whiteSpace=wrap;html=1;" parent="1" vertex="1">
          <mxGeometry x="132" y="260" width="85" height="21" as="geometry" />
        </mxCell>
      </root>
    </mxGraphModel>
  </diagram>
  <diagram id="33TFPbomxli8kb8NW6hA" name="Page-2">
    <mxGraphModel dx="531" dy="741" grid="1" gridSize="10" guides="1" tooltips="1" connect="1" arrows="1" fold="1" page="1" pageScale="1" pageWidth="850" pageHeight="1100" math="0" shadow="0">
      <root>
        <mxCell id="0" />
        <mxCell id="1" parent="0" />
        <mxCell id="3S3uDWiQ5ca31y17pFXa-1" value="RS Papua" style="ellipse;whiteSpace=wrap;html=1;" vertex="1" parent="1">
          <mxGeometry x="120" y="390" width="120" height="80" as="geometry" />
        </mxCell>
        <mxCell id="hcnlHhOcPN-69Rp-TstV-1" value="" style="curved=1;endArrow=classic;html=1;rounded=0;exitX=1;exitY=0.5;exitDx=0;exitDy=0;" edge="1" parent="1" source="3S3uDWiQ5ca31y17pFXa-1">
          <mxGeometry width="50" height="50" relative="1" as="geometry">
            <mxPoint x="250" y="410" as="sourcePoint" />
            <mxPoint x="360" y="220" as="targetPoint" />
            <Array as="points">
              <mxPoint x="300" y="410" />
              <mxPoint x="250" y="360" />
              <mxPoint x="230" y="330" />
              <mxPoint x="250" y="290" />
            </Array>
          </mxGeometry>
        </mxCell>
        <mxCell id="hcnlHhOcPN-69Rp-TstV-2" value="HasBudget" style="edgeLabel;html=1;align=center;verticalAlign=middle;resizable=0;points=[];" vertex="1" connectable="0" parent="hcnlHhOcPN-69Rp-TstV-1">
          <mxGeometry x="0.0884" y="-10" relative="1" as="geometry">
            <mxPoint as="offset" />
          </mxGeometry>
        </mxCell>
        <mxCell id="hcnlHhOcPN-69Rp-TstV-3" value="Direct" style="ellipse;whiteSpace=wrap;html=1;" vertex="1" parent="1">
          <mxGeometry x="320" y="140" width="120" height="80" as="geometry" />
        </mxCell>
        <mxCell id="hcnlHhOcPN-69Rp-TstV-5" value="In_Direct" style="ellipse;whiteSpace=wrap;html=1;" vertex="1" parent="1">
          <mxGeometry x="440" y="210" width="120" height="80" as="geometry" />
        </mxCell>
        <mxCell id="hcnlHhOcPN-69Rp-TstV-7" value="" style="curved=1;endArrow=classic;html=1;rounded=0;entryX=0;entryY=0.5;entryDx=0;entryDy=0;" edge="1" parent="1" target="hcnlHhOcPN-69Rp-TstV-5">
          <mxGeometry width="50" height="50" relative="1" as="geometry">
            <mxPoint x="240" y="320" as="sourcePoint" />
            <mxPoint x="400" y="360" as="targetPoint" />
            <Array as="points">
              <mxPoint x="320" y="270" />
            </Array>
          </mxGeometry>
        </mxCell>
        <mxCell id="hcnlHhOcPN-69Rp-TstV-9" value="Province" style="ellipse;whiteSpace=wrap;html=1;" vertex="1" parent="1">
          <mxGeometry x="425" y="360" width="120" height="80" as="geometry" />
        </mxCell>
        <mxCell id="hcnlHhOcPN-69Rp-TstV-10" value="" style="curved=1;endArrow=classic;html=1;rounded=0;entryX=0;entryY=0;entryDx=0;entryDy=0;" edge="1" parent="1" target="hcnlHhOcPN-69Rp-TstV-9">
          <mxGeometry width="50" height="50" relative="1" as="geometry">
            <mxPoint x="240" y="430" as="sourcePoint" />
            <mxPoint x="400" y="360" as="targetPoint" />
            <Array as="points">
              <mxPoint x="400" y="410" />
              <mxPoint x="350" y="360" />
            </Array>
          </mxGeometry>
        </mxCell>
        <mxCell id="hcnlHhOcPN-69Rp-TstV-11" value="LocatedIn" style="edgeLabel;html=1;align=center;verticalAlign=middle;resizable=0;points=[];" vertex="1" connectable="0" parent="hcnlHhOcPN-69Rp-TstV-10">
          <mxGeometry x="-0.3639" y="5" relative="1" as="geometry">
            <mxPoint as="offset" />
          </mxGeometry>
        </mxCell>
        <mxCell id="hcnlHhOcPN-69Rp-TstV-12" value="Nurses" style="ellipse;whiteSpace=wrap;html=1;" vertex="1" parent="1">
          <mxGeometry x="390" y="500" width="120" height="80" as="geometry" />
        </mxCell>
        <mxCell id="hcnlHhOcPN-69Rp-TstV-14" value="" style="curved=1;endArrow=classic;html=1;rounded=0;entryX=0;entryY=0.5;entryDx=0;entryDy=0;exitX=1;exitY=1;exitDx=0;exitDy=0;" edge="1" parent="1" source="3S3uDWiQ5ca31y17pFXa-1" target="hcnlHhOcPN-69Rp-TstV-12">
          <mxGeometry width="50" height="50" relative="1" as="geometry">
            <mxPoint x="190" y="555" as="sourcePoint" />
            <mxPoint x="240" y="505" as="targetPoint" />
            <Array as="points">
              <mxPoint x="340" y="460" />
              <mxPoint x="290" y="500" />
            </Array>
          </mxGeometry>
        </mxCell>
        <mxCell id="hcnlHhOcPN-69Rp-TstV-15" value="has_number_of" style="edgeLabel;html=1;align=center;verticalAlign=middle;resizable=0;points=[];" vertex="1" connectable="0" parent="hcnlHhOcPN-69Rp-TstV-14">
          <mxGeometry x="-0.3362" y="-4" relative="1" as="geometry">
            <mxPoint as="offset" />
          </mxGeometry>
        </mxCell>
        <mxCell id="hcnlHhOcPN-69Rp-TstV-18" value="" style="curved=1;endArrow=classic;html=1;rounded=0;" edge="1" parent="1">
          <mxGeometry width="50" height="50" relative="1" as="geometry">
            <mxPoint x="320" y="470" as="sourcePoint" />
            <mxPoint x="390" y="620" as="targetPoint" />
            <Array as="points">
              <mxPoint x="270" y="520" />
              <mxPoint x="380" y="570" />
            </Array>
          </mxGeometry>
        </mxCell>
        <mxCell id="hcnlHhOcPN-69Rp-TstV-19" value="Doctors" style="ellipse;whiteSpace=wrap;html=1;" vertex="1" parent="1">
          <mxGeometry x="340" y="620" width="120" height="80" as="geometry" />
        </mxCell>
      </root>
    </mxGraphModel>
  </diagram>
  <diagram id="nv2lSk63SOu20YU_nJoO" name="Page-3">
    <mxGraphModel dx="1114" dy="999" grid="1" gridSize="10" guides="1" tooltips="1" connect="1" arrows="1" fold="1" page="1" pageScale="1" pageWidth="850" pageHeight="1100" math="0" shadow="0">
      <root>
        <mxCell id="0" />
        <mxCell id="1" parent="0" />
        <mxCell id="S1zi0CzJdjei40PMaPn2-1" value="&lt;b&gt;Data Exploration&lt;/b&gt;" style="rounded=1;whiteSpace=wrap;html=1;" vertex="1" parent="1">
          <mxGeometry x="190" y="320" width="120" height="60" as="geometry" />
        </mxCell>
        <mxCell id="S1zi0CzJdjei40PMaPn2-2" value="&lt;b&gt;Web Ontology Exploration&lt;/b&gt;" style="rounded=1;whiteSpace=wrap;html=1;" vertex="1" parent="1">
          <mxGeometry x="360" y="320" width="120" height="60" as="geometry" />
        </mxCell>
        <mxCell id="S1zi0CzJdjei40PMaPn2-3" value="&lt;b&gt;Web Ontology Testing&lt;/b&gt;" style="rounded=1;whiteSpace=wrap;html=1;" vertex="1" parent="1">
          <mxGeometry x="530" y="320" width="120" height="60" as="geometry" />
        </mxCell>
        <mxCell id="S1zi0CzJdjei40PMaPn2-4" value="" style="shape=flexArrow;endArrow=classic;html=1;rounded=0;exitX=1;exitY=0.5;exitDx=0;exitDy=0;entryX=0;entryY=0.5;entryDx=0;entryDy=0;fillColor=#fff2cc;strokeColor=#d6b656;" edge="1" parent="1" source="S1zi0CzJdjei40PMaPn2-1" target="S1zi0CzJdjei40PMaPn2-2">
          <mxGeometry width="50" height="50" relative="1" as="geometry">
            <mxPoint x="280" y="540" as="sourcePoint" />
            <mxPoint x="330" y="490" as="targetPoint" />
          </mxGeometry>
        </mxCell>
        <mxCell id="S1zi0CzJdjei40PMaPn2-6" value="" style="shape=flexArrow;endArrow=classic;html=1;rounded=0;exitX=1;exitY=0.5;exitDx=0;exitDy=0;entryX=0;entryY=0.5;entryDx=0;entryDy=0;fillColor=#fff2cc;strokeColor=#d6b656;" edge="1" parent="1" source="S1zi0CzJdjei40PMaPn2-2" target="S1zi0CzJdjei40PMaPn2-3">
          <mxGeometry width="50" height="50" relative="1" as="geometry">
            <mxPoint x="500" y="440" as="sourcePoint" />
            <mxPoint x="550" y="390" as="targetPoint" />
          </mxGeometry>
        </mxCell>
      </root>
    </mxGraphModel>
  </diagram>
</mxfile>
